<svg height="24" viewBox="0 0 24 24" width="24" xmlns="http://www.w3.org/2000/svg"><g fill="#494c4e"><circle cx="19" cy="23" r="1"/><path d="m24 13c0 2.42-1.72 4.44-4 4.9v2.1c0 .55-.45 1-1 1s-1-.45-1-1v-3c0-.55.45-1 1-1 1.65 0 3-1.35 3-3s-1.35-3-3-3-3 1.35-3 3c0 .55-.45 1-1 1s-1-.45-1-1c0-2.76 2.24-5 5-5s5 2.24 5 5zm-16-6h-3c-.553 0-1-.448-1-1s.447-1 1-1h3c.553 0 1 .448 1 1s-.447 1-1 1zm4 3c0 .55-.45 1-1 1h-6c-.55 0-1-.45-1-1s.45-1 1-1h6c.55 0 1 .45 1 1zm0 4c0 .55-.45 1-1 1h-6c-.55 0-1-.45-1-1s.45-1 1-1h6c.55 0 1 .45 1 1z"/><path d="m18 2v2.96c0 .55-.45 1-1 1s-1-.45-1-1v-2.46c0-.28-.22-.5-.5-.5h-13c-.28 0-.5.22-.5.5v19c0 .28.21.5.49.5h12.51c.55 0 1 .45 1 1s-.45 1-1 1h-13c-1.1 0-2-.9-2-2v-20c0-1.1.9-2 2-2h14c1.1 0 2 .9 2 2z"/><path d="m12 18c0 .55-.45 1-1 1h-6c-.55 0-1-.45-1-1s.45-1 1-1h6c.55 0 1 .45 1 1z"/></g></svg>